<?xml version="1.0" encoding="utf-8"?>
<!-- Generator: Adobe Illustrator 21.0.0, SVG Export Plug-In . SVG Version: 6.00 Build 0)  -->
<svg version="1.1" id="Слой_1" xmlns="http://www.w3.org/2000/svg" xmlns:xlink="http://www.w3.org/1999/xlink" x="0px" y="0px"
	 viewBox="0 0 471 499" height="496px" style="enable-background:new 0 0 471 499;" xml:space="preserve">
<g>
	<g>
		<path fill="#2B2A2C" d="M176.9,497.5c-3.5,0-5.8-3.6-4.4-6.8c2.1-4.9,4.2-9.9,5.8-15c1.3-4.2,1.5-9,0.9-13.4c-1.2-8.8-3.5-17.3-4.8-26.1
			c-1-6.4-1.7-13-1.8-19.5c-0.2-17.6-6.4-33.3-14.7-48.1c-4.3-7.6-6-7.6-12.1-3.5c-9.5,6.3-19.8,11.5-29.2,18.1
			c-7.3,5.2-19.4,2.8-25.1-2.2c-5.1-4.4-8.9-9.4-9.7-16.9c-0.8-7.1-3.6-13.9-5.6-20.8c-2.6-9.1-2.9-18,0.6-27.1
			c6.9-18,14.3-35.8,15.9-55.4c0.2-2.8,0-5.7,0.2-8.6c1.6-22.2,10-42,22.6-59.8c6.9-9.7,17.4-9.7,28-9.1c4.7,0.3,9.5-0.5,13.9-2.3
			c10.4-4.2,20.6-8.7,30.6-13.7c5.9-3,12.5-5.2,17.5-9.5c3.7-3.2,6.6-10,6.6-15c0-3.1-0.3-6.2-0.5-9.4c-0.3-4.6-0.1-8.6-6.3-10.8
			c-3.6-1.3-5.8-7.4-8.2-11.5c-2.4-4.2-4.7-8.5-6.4-13c0-0.1-0.1-0.2-0.2-0.5c-0.4-1.5-0.8-4.5,0.5-5.6c0.3-0.2,0.4-0.2,4.4-0.3
			c0.2,0,0.6,0,1.1,0c0.5,0,0.9,0.2,1.4,0.3c-1.9-10.9-2.5-20.1-2.7-26.9c-0.2-10-0.3-15.7,2-22.3c1-2.9,3.3-8.4,6.8-14.3
			c0.5-0.8,1.2-2,2.2-3.6c2.8-4.3,6.1-9.2,10.8-12.4c2.8-1.8,5-2.4,8.4-3.3c21.1-5.7,19.4-7.1,25.8-7.6c12.7-1,22.8,4.3,25.4,5.7
			c11.5,6.3,22.2,18.7,23.6,22.6c0.1,0.3,0.9,2.7,2.1,2.7c0.6,0,0.9-0.7,1.4-0.7c0.7,0,2.1,1.6,3.1,8.3c1.4,10.5,0.9,28.2-1.6,39.6
			c0,0-0.8,3.8,0.1,4.3c0.6,0.3,1.2-0.9,3.3-1.6c0.9-0.3,2.3-0.9,3-0.3c1,0.7,0.4,3.2-0.1,5.2c-1.9,7.4-4.2,13.4-5,15.7
			c-1.1,3.1-2,5.4-2.8,7.6c-1.3,3.5-3.5,6.7-5.3,9.9c-1.4,2.6-3.3,4.9-4.4,7.6c-3.2,7.7-5.6,15.8-9.2,23.3
			c-5.1,10.5-2.2,23.1,8.3,28c9.9,4.6,20.5,7.8,30.8,11.5c7.2,2.6,14.5,4.8,21.6,7.6c6.3,2.5,10.5,7.8,13.5,13.7
			c8.6,16.8,14.3,34.2,14.1,53.5c-0.1,9,3.2,18.1,4.9,27.1c4,21.5,7.5,43.1,12.2,64.4c5.6,25,5.4,50.4,6.3,75.7
			c0.5,13.9-1.7,27.8-2.5,41.7c-0.3,5.9-0.4,11.9-0.5,17.9c-0.1,2.7-2.2,4.8-4.8,4.8h-19.4c-2.6,0-4.7-2.1-4.8-4.7
			c-0.5-16.7-7.1-32.3-9.9-48.6c-2.4-13.7-5.4-27.3-6-41.3c-0.6-14.6-2.9-29-7.4-43c-2.1-6.4-4.7-11.5-5.9-19.8
			c-0.3-2-2.3-16.8-2.2-20c0-0.1,0.2-0.6-0.1-1c-0.8-1.2-1.5-2.9-2.6-3.3c-1.1-0.4-3.2,0.3-3.9,1.2c-1.8,2.8-4,5.7-4.4,8.8
			c-1.4,10-1.9,20-3,30c-0.7,6.8-2,13.6-2.5,20.4c-0.5,6.8-1.4,13.9-0.1,20.3c2.1,10,6.6,19.4,9.1,29.3c5.7,21.8,9.9,43.8,10.6,66.4
			c0.1,2.8-2.1,5.1-4.8,5.1H176.9z"/>
	</g>
</g>
</svg>
