<?xml version="1.0" encoding="utf-8"?>
<!-- Generator: Adobe Illustrator 21.0.0, SVG Export Plug-In . SVG Version: 6.00 Build 0)  -->
<svg fill="#2B2A2C" width="372px" height="496px" version="1.1" id="Слой_1" xmlns="http://www.w3.org/2000/svg" xmlns:xlink="http://www.w3.org/1999/xlink" x="0px" y="0px"
	 viewBox="0 0 377.3 496" style="enable-background:new 0 0 377.3 496;" xml:space="preserve">
<g>
	<path d="M377.3,191.8c0,56.1,0,112.2,0,168.3c-1.6,0.5-4.3,0.5-4.8,1.5c-2.5,5.3-5.9,10.7-6.1,16.3c-0.4,10,0.9,20,2,30
		c0.5,4.1,1.2,7.8-2.3,11.2c-1.1,1-1.9,3.8-1.2,5c3.7,7.3,0.5,16.3,5.8,23.2c0.7,0.9,0.3,3,0.1,4.4c-1.9,9.5,2.3,17.3,6.5,25.1
		c0,6.4,0,12.8,0,19.3c-125.7,0-251.3,0-377.3,0c0-116.6,0-233.2,0-349.9c0.8,0.5,1.8,0.9,2.5,1.5c2.2,2.2,0.9,4.9,1.1,7.4
		c0.1,2.2,0.9,5.6,2.3,6.2c3.5,1.4-2.4,3.8,1.1,5.3c1.4,0.6,1.3,4.5,1.9,6.9c0.6-0.1,1.1-0.1,1.7-0.2c0.6-1.6,1.9-3.3,1.8-4.9
		c-0.5-8.2,0.9-15.9,3.8-23.6c2.1-5.6,2.5-11.8,4.2-17.5c0.9-3,2.7-5.8,4.4-8.4c0.9-1.4,3.3-2.3,3.5-3.7c0.6-4.2,0.2-8.6,0.5-12.9
		c0.4-5.5,1-10.9,1.7-16.3c0.6-4.8,2-9.6,2-14.4c0-8.6-3-17.2,1.5-25.5c0.3-0.5-0.3-1.6-0.6-2.4c-2.7-8.7-7-16.6-12.3-24.1
		C17,13.6,13.6,7.2,9.9,1.1c0.5-0.4,0.9-0.7,1.4-1.1c4.3,4.5,9.6,8.5,12.6,13.8c4.2,7.5,6.9,15.9,9.5,24.2
		c4.1,12.5,11.9,23.2,15.3,36.3c4.9,18.9,5.9,37.8,5.6,56.8c-0.2,15.8-2.4,31.5-3.7,47.3c-0.2,2.3-0.8,4.6-1.2,7
		c-1.6,10.6-3.1,21.2-5,31.8c-1.3,7.2-2.7,14.3-1.9,21.6c0.2,2,1.6,3.8,2.7,5.7c0.7,1.2,1.6,2.3,2.5,3.4c3.4,4.2,6.9,8.3,10.6,12.8
		c1.7-2.8,2.5-5.2,4.2-6.6c1.5-1.3,2.1-2.3,2.3-3.6c0.2-2-1.2-3.4-2.6-5.4c-1.3-1.8-3-4.5-4.5-8.3c0.5,0.3,1.1,0.6,1.6,0.9
		c2.6,3.5,5.2,6.9,7.8,10.4c0.6-0.4,1.2-0.7,1.8-1.1c-1.5-2.9-3-5.7-5-9.5c3,2.7,5.2,4.6,7.4,6.5c0.4-0.3,0.8-0.5,1.2-0.8
		c-2.1-5.3-4.3-10.5-6.4-15.8c4.1,4.6,5.6,8.2,6.2,10.8c0.2,0.9,0.7,3,2.1,3.5c1.1,0.3,2.2-0.4,3.1-1.1c2.9-2.2,6.2-4.1,8.8-6.7
		c1.9-2,3.5-4.7,4.1-7.4c3-12.6,1.9-18.7,6.3-29.4c1.3-3.1,2.7-5.5,3.5-6.7c0.3,0.5,0.6,1,0.9,1.5c2.8,13.9,5.6,27.9,8.5,41.8
		c0.7,0.1,1.5,0.2,2.2,0.2c5.8-6.1,12.6-11.5,18.2-17.9c6.8-7.7,8.7-13.1,9.9-17.7c0.6-2.3,0.8-4.3,1-5.7c0.7,1.3,1.7,3.4,2.2,6.1
		c0.5,2.8,0.2,4.4,1.2,5.2c0.7,0.5,2.2,0.8,5.6-1.1c-0.4-4.4-0.6-8.7-1.2-13c-1.9-13.5-3.4-27.2-14.7-36.9
		c-8.6-7.4-9.5-18.6-13.9-28c-1-2.3,1.5-6,1.5-9c0-7.1,0.5-14.5-1.1-21.4c-1.8-7.7-0.9-15,0.2-22.4c0.9-6,3.1-11.2,7.9-15.2
		c1.7-1.4,2.6-3.8,3.8-5.7c1-1.7,1.6-3.9,3-5.1c5.8-5.1,11.7-10.2,17.8-14.8c5.7-4.3,11.5-8.5,17.6-12.1c4.2-2.4,9-4.1,13.7-5.4
		c5.1-1.5,10.2-2.5,12.3-6.7c4.7-1.1,8.8-2.1,13-2.9c1.1-0.2,2.7-0.7,3.3-0.2c4.3,3.6,11-0.8,14.8,4.5c0.3,0.4,1.3,0.3,2,0.2
		c4.3-0.5,7.5,0.5,11.2,3.8c2.5,2.3,3,5,4.7,7.2c4.3,5.4,8.3,10.9,12.4,16.4c6.2,8.2,7.1,17.4,6.1,27.5c-0.8,8.3-1.4,17.3,1,25.1
		c2.8,9.4,3.8,18.1,1.6,27.5c-0.5,2,0,4.4,0.3,6.5c0.9,6.6,3.3,13.2,2.7,19.7c-1,11.5-3.4,23-6,34.2c-2.4,10.1-5.6,20.2-13.9,27.5
		c-0.5,0.5-0.4,1.7-0.8,3.5c2.6-0.8,4.4-1.4,6.3-1.9c2.1-0.6,4.3-1.6,6.3-1.4c6.6,0.7,13.2,2.3,19.8,2.9c15.1,1.3,29.4,7.9,45.1,5.1
		c6.8-1.2,14.1,0.7,22,1.3c-0.3-1.5-0.3-4-1.4-5.8c-11.7-19.5-16.4-29.7-15.6-45.1c0.1-1.5,0.3-4.3,1.3-7.7c0.6,1.3,1.7,3.2,3.1,5.6
		c3.4,5.8,6.7,9.6,7.6,11c4.8,8.1,10,16.2,14,24.7c3.3,7,5.2,14.6,7.8,22c1.4,4.1,2.7,8.1,4.1,12.2c0.6-0.1,1.1-0.2,1.7-0.3
		c0-5.9,0.2-11.8-0.1-17.6c-0.3-7.5-1.2-15-1.4-22.4c-0.1-1.9,1.3-3.9,2-5.9c0.4,0,0.9-0.1,1.3-0.1
		C374.6,186.5,375.9,189.1,377.3,191.8z M60,426.6c0.6,0.8,1.6,2.1,2.7,3.3c7.4,8.3,15.9,15.3,25.5,20.9c1.7,1,3.7,1.5,5.6,2.2
		c-0.1-2.1,0.1-4.2-0.4-6.2c-2.8-11.1-5.7-22.1-8.7-33.1c-1-3.8-2.6-7.4-4.3-12.2C73.3,410.3,66.9,418.1,60,426.6z M28.5,165
		c-6.8,5.6-7.4,21.5-1.2,28.5C29.9,183.9,28.1,174.8,28.5,165z"/>
	<path d="M328.1,179.1"/>
</g>
</svg>
